<?xml version="1.0" encoding="utf-8"?>
<!-- Generator: Adobe Illustrator 25.4.0, SVG Export Plug-In . SVG Version: 6.00 Build 0)  -->
<svg version="1.1" id="Capa_1" xmlns="http://www.w3.org/2000/svg" xmlns:xlink="http://www.w3.org/1999/xlink" x="0px" y="0px"
	 viewBox="0 0 1440 320" style="enable-background:new 0 0 1440 320;" xml:space="preserve">
<style type="text/css">
	.st0{fill:url(#SVGID_1_);}
</style>
<linearGradient id="SVGID_1_" gradientUnits="userSpaceOnUse" x1="-645.7559" y1="-191.8934" x2="1433.4838" y2="214.4555">
	<stop  offset="0" style="stop-color:#2259C9"/>
	<stop  offset="0.4123" style="stop-color:#454AB9"/>
	<stop  offset="0.7772" style="stop-color:#5E3FAD"/>
	<stop  offset="1" style="stop-color:#673BA9"/>
</linearGradient>
<path class="st0" d="M0,128l26.7,10.7C53.3,149,107,171,160,181.3c53.3,10.7,107,10.7,160,16c53.3,5.7,107,15.7,160,0
	c53.3-16.3,107-58.3,160-74.6c53.3-15.7,107-5.7,160,10.6c53.3,15.7,107,37.7,160,53.4c53.3,16.3,107,26.3,160,0
	c53.3-26.7,107-90.7,160-112c53.3-21.7,107,0.3,133,10.6l27,10.7V0h-26.7c-26.6,0-80.3,0-133.3,0c-53.3,0-107,0-160,0
	c-53.3,0-107,0-160,0c-53.3,0-107,0-160,0c-53.3,0-107,0-160,0c-53.3,0-107,0-160,0c-53.3,0-107,0-160,0c-53.3,0-107,0-160,0
	C106.7,0,53,0,27,0H0V128z"/>
</svg>
